<?xml version="1.0" encoding="UTF-8" standalone="no"?>
<!-- Created with Inkscape (http://www.inkscape.org/) -->

<svg
   width="125.36999mm"
   height="71.540253mm"
   viewBox="0 0 125.36999 71.540253"
   version="1.1"
   id="svg5"
   inkscape:version="1.1.2 (0a00cf5339, 2022-02-04)"
   sodipodi:docname="logo-alarach.svg"
   xmlns:inkscape="http://www.inkscape.org/namespaces/inkscape"
   xmlns:sodipodi="http://sodipodi.sourceforge.net/DTD/sodipodi-0.dtd"
   xmlns="http://www.w3.org/2000/svg"
   xmlns:svg="http://www.w3.org/2000/svg">
  <sodipodi:namedview
     id="namedview7"
     pagecolor="#ffffff"
     bordercolor="#666666"
     borderopacity="1.0"
     inkscape:pageshadow="2"
     inkscape:pageopacity="0.0"
     inkscape:pagecheckerboard="0"
     inkscape:document-units="mm"
     showgrid="false"
     fit-margin-top="0"
     fit-margin-left="0"
     fit-margin-right="0"
     fit-margin-bottom="0"
     inkscape:zoom="3.1108586"
     inkscape:cx="227.10772"
     inkscape:cy="170.85315"
     inkscape:window-width="2560"
     inkscape:window-height="1376"
     inkscape:window-x="1280"
     inkscape:window-y="27"
     inkscape:window-maximized="0"
     inkscape:current-layer="layer1" />
  <defs
     id="defs2" />
  <g
     inkscape:label="Calque 1"
     inkscape:groupmode="layer"
     id="layer1"
     transform="translate(-19.127,-57.767721)">
    <path
       style="fill:#000000;stroke:#000000;stroke-width:1.03188"
       id="path857"
       d="m 25.660943,123.59011 c 2.436209,-3.4969 4.549848,-7.20147 6.7434,-10.85143 0.821151,-1.40671 1.819077,-3.05445 2.523649,-4.51973 0.998791,-2.07717 1.685454,-4.01192 2.488753,-6.18585 0.512477,-1.38689 2.113259,-5.826397 2.626132,-7.246265 1.533872,-4.184298 3.139173,-8.345503 4.482992,-12.59654 0.293132,-0.927293 1.409425,-4.698611 1.691992,-5.649552 1.414679,-4.768538 2.836508,-9.529546 4.094517,-14.342319 -1.349225,0.923314 1.168132,-2.174095 0.565539,-1.901651 -1.13455,0.512953 -2.140734,1.277089 -3.157482,1.9958 -0.08924,0.06308 -0.104188,0.201229 -0.105212,0.310505 -0.0049,0.521591 0.06788,1.041143 0.08767,1.56238 0.0291,0.76636 0.03932,1.533319 0.05898,2.299978 0.160994,4.613518 -0.104997,9.234892 0.04604,13.847815 0.02678,0.81802 0.09164,1.634353 0.137464,2.451529 0.207772,3.479488 0.687041,6.933848 0.960819,10.407644 0.174559,2.302497 0.124912,4.612151 0.269065,6.915646 0.107358,0.99927 0.04569,2.45477 0.964716,3.1388 0.132199,0.0984 0.303051,0.12959 0.454578,0.19439 1.327666,-0.72522 2.718173,-1.34569 3.983,-2.17566 0.320578,-0.21036 0.485244,-0.59434 0.710819,-0.9044 0.336646,-0.462721 0.661136,-0.934452 0.975069,-1.412876 1.402909,-2.137987 2.747799,-4.311021 4.164762,-6.440768 3.24925,-4.639281 6.338813,-9.38707 9.554601,-14.048944 1.293101,-1.904828 2.647148,-3.773662 3.753601,-5.796256 0.773094,-1.445802 1.294104,-3.016692 1.886622,-4.543377 0.264407,-0.579742 0.393277,-1.251683 0.743138,-1.79396 0.04926,-0.07636 0.276614,-0.231905 0.196562,-0.188899 -3.870235,2.079191 -3.284408,0.698786 -3.815829,3.063668 -2.036799,5.73976 -3.904697,11.534402 -5.665107,17.36443 -1.637657,5.726993 -2.797564,11.577531 -3.792165,17.446152 -0.672414,4.53484 -1.24792,9.10863 -1.260848,13.6988 0.06803,1.85649 0.473761,3.68817 1.571562,5.2207 0.450397,0.62876 0.89155,1.01873 1.43538,1.55281 1.374066,1.29756 2.954036,2.3249 4.638699,3.16665 1.138695,0.5787 2.387772,0.8153 3.614441,1.12162 0,0 3.206861,-2.21175 3.206861,-2.21175 v 0 c -1.210842,-0.30423 -2.44807,-0.5231 -3.594719,-1.03776 -1.671778,-0.79204 -3.221929,-1.79931 -4.584991,-3.05739 -0.541232,-0.51095 -0.951037,-0.85512 -1.401286,-1.46124 -1.081873,-1.4564 -1.456127,-3.21752 -1.539454,-4.999 -0.0182,-4.55742 0.504375,-9.10221 1.204055,-13.60092 0.981427,-5.839248 2.07677,-11.668839 3.724235,-17.362815 1.784496,-5.894306 3.668109,-11.757284 5.898915,-17.50055 0.09691,-0.388112 0.6903,-1.183293 0.290721,-1.164336 -3.409886,0.161793 -3.582511,1.149231 -4.378378,3.372533 -0.576511,1.524849 -1.131562,3.070397 -1.921748,4.500753 -1.090697,1.965619 -2.374019,3.814704 -3.606599,5.692214 -3.147271,4.685371 -6.232056,9.412041 -9.488254,14.023612 -1.439712,2.149727 -2.805735,4.359892 -4.288015,6.480299 -0.335584,0.48006 -0.678355,0.95649 -1.05319,1.40656 -0.245935,0.2953 -1.172443,0.93863 -0.805325,0.825 1.025421,-0.31739 1.912297,-0.97572 2.868448,-1.46358 -0.112226,10e-4 -0.234958,0.0507 -0.336674,0.003 C 52.71332,100.83646 52.68203,99.009035 52.612347,98.30555 52.428043,96.010827 52.457716,93.707717 52.291471,91.411596 51.98729,87.960019 51.416182,84.536962 51.214405,81.075368 50.90103,75.650862 51.055933,70.215799 51.051779,64.784785 c 0.0044,-0.781643 0.01161,-1.563273 0.01323,-2.344926 0.0011,-0.549103 0.05194,-1.101159 -0.005,-1.647304 -0.03533,-0.338978 0.05559,-1.088712 -0.269473,-0.986289 -3.456096,1.088956 -3.343899,1.634048 -3.872928,4.018576 -1.135251,4.810421 -2.592107,9.524031 -3.974801,14.267129 -0.153514,0.519012 -1.515441,5.130896 -1.671273,5.627984 -1.327576,4.234863 -2.928562,8.377071 -4.418817,12.55559 -2.202008,6.141585 -4.269589,12.401845 -7.791907,17.944815 -2.21841,3.70625 -4.371952,7.47103 -6.994865,10.91255 0,0 3.594972,-1.54307 3.594972,-1.54307 z" />
    <path
       style="fill:#000000;stroke:#000000;stroke-width:1.03188"
       id="path859"
       d="m 84.051015,107.42645 c 1.598067,-0.77773 3.279142,-1.36899 4.890174,-2.11723 1.220745,-0.56697 1.754439,-0.88446 2.931282,-1.52904 3.618124,-1.94136 7.100736,-4.04941 9.165099,-7.70094 0.22098,-0.390887 0.38791,-0.809956 0.58187,-1.214932 0.4955,-1.589641 0.67748,-3.627824 -0.59777,-4.939779 -0.20612,-0.212048 -0.47,-0.359024 -0.705,-0.538533 -2.493363,-1.238755 -5.334575,-1.583827 -8.066919,-1.932088 -2.209488,-0.242848 -4.503261,-0.267046 -6.684894,0.23377 -0.4044,0.09283 -0.797716,0.228648 -1.196575,0.342974 -2.351792,1.054846 -4.883433,2.120191 -6.499802,4.196395 -1.046186,1.343811 -1.654244,2.907869 -2.290456,4.46719 -1.345718,3.737093 -1.635042,7.708563 -1.86927,11.639093 -0.149387,2.42334 -0.0849,4.90137 0.476001,7.27597 0.304117,1.28747 0.506021,1.66286 0.989783,2.86278 0.900469,1.77363 2.19216,3.3103 3.816672,4.46498 1.073735,0.7632 1.720043,1.04783 2.886657,1.65486 2.11713,0.96709 4.311076,1.75866 6.592398,2.23528 1.408991,0.29437 2.072921,0.35352 3.491553,0.53803 3.313155,0.39324 6.641274,0.35513 9.962352,0.12969 1.7901,-0.18222 0.92763,-0.0859 2.58778,-0.28552 l 3.06594,-2.28744 v 0 c -1.67442,0.2251 -0.80645,0.11617 -2.60433,0.32341 -3.31248,0.2573 -6.630352,0.32061 -9.939866,-0.054 -1.417794,-0.17062 -2.064009,-0.22082 -3.471886,-0.50243 -2.26024,-0.4521 -4.430356,-1.22334 -6.530049,-2.1665 -1.173779,-0.59963 -1.753746,-0.84329 -2.831843,-1.6008 -1.580841,-1.11075 -2.835283,-2.58377 -3.70961,-4.30376 -0.486253,-1.18295 -0.671933,-1.50842 -0.974865,-2.78236 -0.556887,-2.34191 -0.62076,-4.78139 -0.479107,-7.17262 0.235217,-3.90605 0.57182,-7.846665 1.958342,-11.542873 0.654455,-1.53884 1.284735,-3.06555 2.386357,-4.353369 0.299426,-0.350036 1.44558,-1.031579 0.989899,-0.964224 -0.808366,0.119486 -1.454939,0.744897 -2.170885,1.138788 -0.373515,0.205494 0.762132,-0.382259 1.143198,-0.573389 0.389276,-0.125058 0.771975,-0.272828 1.167828,-0.375177 2.124224,-0.549214 4.484193,-0.568605 6.650175,-0.352067 2.675949,0.31778 5.420958,0.67062 7.88764,1.819703 0.213516,0.145685 0.453167,0.259006 0.640548,0.437057 1.232043,1.170694 0.942941,3.117932 0.458004,4.54074 -0.195908,0.3884 -0.367617,0.789987 -0.587727,1.165206 -0.813596,1.38692 -1.876668,2.612385 -3.099818,3.651985 -0.454083,0.38594 -2.002165,1.30637 -1.457102,1.5473 0.609819,0.26955 1.217392,-1.08185 1.807352,-1.39248 -1.049168,0.58696 -1.814846,1.03875 -2.903268,1.55355 -1.568746,0.74199 -3.213213,1.31394 -4.798068,2.01915 l -3.057794,2.4437 z"
       sodipodi:nodetypes="cscscsccscsccscscsccccsccscscsccssscsccscssscsccc" />
    <path
       style="fill:#000000;stroke:#000000;stroke-width:1.03188"
       id="path861"
       d="m 117.91795,106.36752 c 3.43554,-1.22598 7.03827,-1.88681 10.56939,-2.7752 0.50676,-0.16571 1.02663,-0.29573 1.52029,-0.49714 0.45809,-0.1869 0.90474,-0.407 1.32713,-0.66461 2.51845,-1.53597 3.89532,-1.98489 5.41182,-3.939309 0.73376,-0.945637 0.87895,-1.383556 1.39028,-2.441186 0.66318,-1.774978 1.09396,-3.780406 0.26525,-5.586682 -0.12913,-0.281448 -0.31994,-0.530276 -0.4799,-0.795412 -1.23425,-1.619901 -3.14902,-2.246884 -5.0349,-2.776032 -2.83516,-0.694161 -5.72829,-1.082344 -8.63021,-1.356482 -2.0608,-0.172865 -4.18564,-0.328734 -6.16338,0.410377 -0.35253,0.131747 -0.68462,0.312822 -1.02693,0.469233 -2.29035,1.234382 -4.43484,2.220503 -5.88516,4.346692 -0.77264,1.132686 -1.30229,2.434952 -1.85415,3.681301 -0.67804,1.88472 -1.40648,3.760544 -1.86575,5.71463 -0.30727,1.30737 -0.34312,1.74951 -0.53917,3.08248 -0.2266,2.05656 -0.44191,4.13966 -0.20922,6.20701 0.13801,1.22611 0.2764,1.58496 0.58533,2.76969 0.63765,1.97156 1.7223,3.76125 3.06583,5.33266 0.55785,0.65246 1.75337,1.84222 2.36548,2.46215 1.64489,1.91373 3.35194,3.83124 5.571,5.09611 0.40036,0.2282 0.8267,0.40744 1.24005,0.61116 2.82806,1.11593 5.91705,1.18312 8.91856,1.19622 2.85077,-0.042 5.64808,-0.5695 8.42665,-1.15555 1.43505,-0.29998 2.85011,-0.67539 4.24643,-1.12004 l 3.04787,-2.36683 v 0 c -1.39546,0.4792 -2.81419,0.87047 -4.25727,1.18158 -2.77271,0.59464 -5.55498,1.15982 -8.40198,1.23573 -2.95679,0.0212 -5.99429,-0.0469 -8.803,-1.06911 -0.40692,-0.18973 -0.82649,-0.3544 -1.22076,-0.56918 -2.2267,-1.213 -3.91098,-3.12226 -5.55022,-5.01036 -0.69427,-0.69365 -1.70658,-1.678 -2.34058,-2.42264 -1.30761,-1.5358 -2.35194,-3.28791 -2.96275,-5.21449 -0.29298,-1.14227 -0.43263,-1.51961 -0.5619,-2.70022 -0.22371,-2.04305 0.003,-4.09995 0.23646,-6.13022 0.20952,-1.33597 0.24302,-1.737685 0.56439,-3.046193 0.47543,-1.935755 1.19334,-3.802658 1.8975,-5.663335 0.73662,-1.601234 1.4505,-3.252298 2.71513,-4.521464 0.28771,-0.288745 1.31067,-0.92832 0.92312,-0.801989 -0.84611,0.275815 -1.56664,0.844738 -2.34997,1.267105 0.33119,-0.171328 0.65043,-0.368056 0.99357,-0.513985 1.93897,-0.8246 4.05441,-0.723281 6.10823,-0.558392 2.87774,0.250579 5.74198,0.623586 8.5474,1.33314 1.7979,0.471016 3.65339,1.035799 4.86251,2.539251 0.14724,0.238858 0.32412,0.461814 0.44172,0.716574 0.79159,1.714778 0.30328,3.634798 -0.35542,5.295884 -0.53251,1.034036 -0.66279,1.420987 -1.42087,2.334657 -0.31107,0.374917 -2.25997,1.306787 -1.77501,1.353047 0.75336,0.0718 2.09683,-1.03338 2.82096,-1.2533 0.98454,-0.299002 -3.81721,1.94206 -2.82096,1.2533 -3.48879,0.91078 -7.04289,1.57604 -10.48476,2.65724 z"
       sodipodi:nodetypes="ccssscscccscscscscscscccccscccscscscscsscscccccscsccc" />
    <path
       style="fill:#00ffff;stroke:#00ffff;stroke-width:1.03188"
       id="path857-7"
       d="m 24.322033,122.07535 c 2.436209,-3.4969 4.549848,-7.20147 6.7434,-10.85143 0.821151,-1.40671 1.819077,-3.05445 2.523649,-4.51973 0.998791,-2.07716 1.685454,-4.01192 2.488753,-6.18585 0.512477,-1.386884 2.113259,-5.826374 2.626132,-7.246244 1.533872,-4.1843 3.139173,-8.3455 4.482992,-12.59654 0.293132,-0.927293 1.409425,-4.698611 1.691992,-5.649552 1.414679,-4.768538 2.836508,-9.529546 4.094517,-14.342319 -1.349225,0.923314 1.168132,-2.174095 0.565539,-1.901651 -1.13455,0.512953 -2.140734,1.277089 -3.157482,1.9958 -0.08924,0.06308 -0.104188,0.201229 -0.105212,0.310505 -0.0049,0.521591 0.06788,1.041143 0.08767,1.56238 0.0291,0.76636 0.03932,1.533319 0.05898,2.299978 0.160994,4.613518 -0.104997,9.234892 0.04604,13.847815 0.02678,0.81802 0.09164,1.634354 0.137464,2.451524 0.207772,3.47949 0.687041,6.93385 0.960819,10.40765 0.174559,2.3025 0.124912,4.61215 0.269065,6.915633 0.107358,0.999264 0.04569,2.454761 0.964716,3.138791 0.132199,0.0984 0.303051,0.12959 0.454578,0.19439 1.327666,-0.72522 2.718173,-1.34569 3.983,-2.175657 0.320578,-0.21036 0.485244,-0.594337 0.710819,-0.904394 0.336646,-0.462717 0.661136,-0.934447 0.975069,-1.412864 1.402909,-2.137989 2.747799,-4.311019 4.164762,-6.440769 3.24925,-4.63928 6.338813,-9.38707 9.554601,-14.048943 1.293101,-1.904828 2.647148,-3.773662 3.753601,-5.796256 0.773094,-1.445802 1.294104,-3.016692 1.886622,-4.543377 0.264407,-0.579742 0.393277,-1.251683 0.743138,-1.79396 0.04926,-0.07636 0.276614,-0.231905 0.196562,-0.188899 -3.870235,2.079191 -3.284408,0.698786 -3.815829,3.063668 -2.036799,5.73976 -3.904697,11.534402 -5.665107,17.364427 -1.637657,5.727 -2.797564,11.57753 -3.792165,17.446134 -0.672414,4.53484 -1.24792,9.10863 -1.260848,13.6988 0.06803,1.85649 0.473761,3.68817 1.571562,5.2207 0.450397,0.62876 0.89155,1.01873 1.43538,1.55281 1.374066,1.29756 2.954036,2.3249 4.638699,3.16665 1.138695,0.5787 2.387772,0.8153 3.614441,1.12162 l 3.206861,-2.21175 v 0 c -1.210842,-0.30423 -2.44807,-0.5231 -3.594719,-1.03776 -1.671778,-0.79204 -3.221929,-1.79931 -4.584991,-3.05739 -0.541232,-0.51095 -0.951037,-0.85512 -1.401286,-1.46124 -1.081873,-1.4564 -1.456127,-3.21752 -1.539454,-4.999 -0.0182,-4.55742 0.504375,-9.10221 1.204055,-13.60092 0.981427,-5.839224 2.07677,-11.668814 3.724235,-17.362794 1.784496,-5.894306 3.668109,-11.757284 5.898915,-17.50055 0.09691,-0.388112 0.6903,-1.183293 0.290721,-1.164336 -3.409886,0.161793 -3.582511,1.149231 -4.378378,3.372533 -0.576511,1.524849 -1.131562,3.070397 -1.921748,4.500753 -1.090697,1.965619 -2.374019,3.814704 -3.606599,5.692214 -3.147271,4.685366 -6.232056,9.412036 -9.488254,14.023616 -1.439712,2.14972 -2.805735,4.35989 -4.288015,6.480283 -0.335584,0.480057 -0.678355,0.956484 -1.05319,1.406551 -0.245935,0.2953 -1.172443,0.93863 -0.805325,0.825 1.025421,-0.31739 1.912297,-0.97572 2.868448,-1.463577 -0.112226,10e-4 -0.234958,0.0507 -0.336674,0.003 -0.770144,-0.359107 -0.801434,-2.186528 -0.871117,-2.890017 -0.184304,-2.29472 -0.154631,-4.59783 -0.320876,-6.89395 -0.304181,-3.45158 -0.875289,-6.87463 -1.077066,-10.336227 -0.313375,-5.424506 -0.158472,-10.859569 -0.162626,-16.290583 0.0044,-0.781643 0.01161,-1.563273 0.01323,-2.344926 0.0011,-0.549103 0.05194,-1.101159 -0.005,-1.647304 -0.03533,-0.338978 0.05559,-1.088712 -0.269473,-0.986289 -3.456096,1.088956 -3.343899,1.634048 -3.872928,4.018576 -1.135251,4.810421 -2.592107,9.524031 -3.974801,14.267129 -0.153514,0.519012 -1.515441,5.130894 -1.671273,5.627984 -1.327576,4.23486 -2.928562,8.37707 -4.418817,12.55559 -2.202008,6.141574 -4.269589,12.401824 -7.791907,17.944794 -2.21841,3.70625 -4.371952,7.47103 -6.994865,10.91255 l 3.594972,-1.54307 z"
       sodipodi:nodetypes="ccsscsccsscscscccscsscccccssccccsccccsccscccccccccssscccccccccccsccccc" />
    <path
       style="fill:#00ffff;stroke:#00ffff;stroke-width:1.03188"
       id="path859-8"
       d="m 82.712105,105.9117 c 1.598067,-0.77773 3.279142,-1.36899 4.890174,-2.11724 1.220745,-0.56696 1.754439,-0.88446 2.931282,-1.52903 3.618124,-1.94136 7.100736,-4.049398 9.165102,-7.700924 0.22098,-0.39089 0.387907,-0.80996 0.581867,-1.21494 0.4955,-1.58964 0.67748,-3.62782 -0.597767,-4.93978 -0.20612,-0.21204 -0.470003,-0.35902 -0.705003,-0.53853 -2.493363,-1.23875 -5.334575,-1.58383 -8.066919,-1.93209 -2.209488,-0.24284 -4.503261,-0.26704 -6.684894,0.23377 -0.4044,0.0928 -0.797716,0.22865 -1.196575,0.34298 -2.351792,1.05484 -4.883433,2.12019 -6.499802,4.19639 -1.046186,1.34381 -1.654244,2.90787 -2.290456,4.46719 -1.345718,3.737093 -1.635042,7.708554 -1.86927,11.639084 -0.149387,2.42334 -0.0849,4.90136 0.476001,7.27596 0.304117,1.28747 0.506021,1.66287 0.989783,2.86278 0.900469,1.77363 2.19216,3.31031 3.816672,4.46498 1.073735,0.7632 1.720043,1.04783 2.886657,1.65486 2.11713,0.96709 4.311076,1.75866 6.592398,2.23528 1.408991,0.29437 2.072921,0.35352 3.491553,0.53804 3.313155,0.39324 6.641274,0.35512 9.962352,0.12968 1.79011,-0.18222 0.92764,-0.0859 2.58779,-0.28552 l 3.06594,-2.28744 v 0 c -1.67442,0.2251 -0.80645,0.11617 -2.60433,0.32341 -3.31249,0.2573 -6.630362,0.32061 -9.939876,-0.054 -1.417794,-0.17062 -2.064009,-0.22082 -3.471886,-0.50243 -2.26024,-0.4521 -4.430356,-1.22334 -6.530049,-2.1665 -1.173779,-0.59963 -1.753746,-0.84329 -2.831843,-1.6008 -1.580841,-1.11075 -2.835283,-2.58377 -3.70961,-4.30376 -0.486253,-1.18295 -0.671933,-1.50842 -0.974865,-2.78236 -0.556887,-2.34191 -0.62076,-4.78139 -0.479107,-7.17262 0.235217,-3.90604 0.57182,-7.846642 1.958342,-11.542854 0.654455,-1.53884 1.284735,-3.06555 2.386357,-4.35337 0.299426,-0.35003 1.44558,-1.03158 0.989899,-0.96422 -0.808366,0.11948 -1.454939,0.7449 -2.170885,1.13879 -0.373515,0.20549 0.762132,-0.38226 1.143198,-0.57339 0.389276,-0.12506 0.771975,-0.27283 1.167828,-0.37518 2.124224,-0.54921 4.484193,-0.5686 6.650175,-0.35207 2.675949,0.31778 5.420958,0.67062 7.88764,1.81971 0.213516,0.14568 0.453167,0.259 0.640548,0.43705 1.232043,1.1707 0.942941,3.11794 0.458004,4.54074 -0.195908,0.3884 -0.367617,0.78999 -0.587727,1.16521 -0.813596,1.386919 -1.876668,2.612373 -3.099818,3.651967 -0.454083,0.385937 -1.972007,1.283397 -1.426944,1.524327 0.609819,0.26955 1.187234,-1.05888 1.777194,-1.369507 -1.049168,0.586957 -1.814846,1.038747 -2.903268,1.553547 -1.568746,0.74199 -3.213213,1.31394 -4.798068,2.01915 l -3.057794,2.4437 z"
       sodipodi:nodetypes="cccscsccccsccscscsccccsccscscsccscsccccscssscsccc" />
    <path
       style="fill:#00ffff;stroke:#00ffff;stroke-width:1.03188"
       id="path861-8"
       d="m 116.57905,104.85277 c 3.43554,-1.22599 7.03827,-1.88681 10.56939,-2.7752 0.50676,-0.16572 1.02663,-0.29574 1.52029,-0.49714 0.45809,-0.1869 0.90474,-0.407 1.32713,-0.66461 2.51845,-1.535964 3.89532,-1.984881 5.41182,-3.939292 0.73376,-0.945642 0.87895,-1.383562 1.39028,-2.441192 0.66318,-1.77498 1.09396,-3.78041 0.26525,-5.58668 -0.12913,-0.28145 -0.31994,-0.53028 -0.4799,-0.79541 -1.23425,-1.6199 -3.14902,-2.24689 -5.0349,-2.77604 -2.83516,-0.69416 -5.72829,-1.08234 -8.63021,-1.35648 -2.0608,-0.17286 -4.18564,-0.32873 -6.16338,0.41038 -0.35253,0.13175 -0.68462,0.31282 -1.02693,0.46923 -2.29035,1.23438 -4.43484,2.22051 -5.88516,4.34669 -0.77264,1.13269 -1.30229,2.43496 -1.85415,3.68131 -0.67804,1.88472 -1.40648,3.76054 -1.86575,5.714623 -0.30727,1.307364 -0.34312,1.749501 -0.53917,3.082471 -0.2266,2.05656 -0.44191,4.13966 -0.20922,6.20701 0.13801,1.22611 0.2764,1.58496 0.58533,2.76969 0.63765,1.97156 1.7223,3.76125 3.06583,5.33265 0.55785,0.65247 1.75337,1.84222 2.36548,2.46216 1.64489,1.91372 3.35194,3.83123 5.571,5.09611 0.40036,0.2282 0.8267,0.40743 1.24005,0.61115 2.82806,1.11593 5.91705,1.18313 8.91856,1.19622 2.85077,-0.042 5.64808,-0.5695 8.42665,-1.15555 1.43505,-0.29998 2.85011,-0.67539 4.24643,-1.12004 l 3.04787,-2.36683 v 0 c -1.39546,0.47921 -2.81419,0.87047 -4.25727,1.18158 -2.77271,0.59464 -5.55498,1.15982 -8.40198,1.23574 -2.95679,0.0212 -5.99429,-0.0469 -8.803,-1.06912 -0.40692,-0.18973 -0.82649,-0.3544 -1.22076,-0.56918 -2.2267,-1.21299 -3.91098,-3.12226 -5.55022,-5.01036 -0.69427,-0.69365 -1.70658,-1.678 -2.34058,-2.42264 -1.30761,-1.5358 -2.35194,-3.28791 -2.96275,-5.21449 -0.29298,-1.14226 -0.43263,-1.5196 -0.5619,-2.70021 -0.22371,-2.04305 0.003,-4.09996 0.23646,-6.13022 0.20952,-1.335961 0.24302,-1.737678 0.56439,-3.046182 0.47543,-1.935752 1.19334,-3.802662 1.8975,-5.663332 0.73662,-1.60124 1.4505,-3.2523 2.71513,-4.52147 0.28771,-0.28874 1.31067,-0.92832 0.92312,-0.80199 -0.84611,0.27582 -1.56664,0.84474 -2.34997,1.26711 0.33119,-0.17133 0.65043,-0.36806 0.99357,-0.51399 1.93897,-0.8246 4.05441,-0.72328 6.10823,-0.55839 2.87774,0.25058 5.74198,0.62359 8.5474,1.33314 1.7979,0.47102 3.65339,1.0358 4.86251,2.53925 0.14724,0.23886 0.32412,0.46182 0.44172,0.71658 0.79159,1.71477 0.30328,3.6348 -0.35542,5.29588 -0.53251,1.034042 -0.66279,1.420989 -1.42087,2.334653 -0.31107,0.37492 -1.95582,1.220202 -1.47086,1.266459 0.75336,0.0718 1.79268,-0.946789 2.51681,-1.166709 0.98454,-0.299007 -3.83907,1.943571 -2.84282,1.254815 -3.48879,0.910776 -7.02103,1.574516 -10.4629,2.655716 z"
       sodipodi:nodetypes="ccssscscccscscscscscscccccscccscscscscsscscccccscsccc" />
  </g>
</svg>
